<?xml version="1.0" encoding="UTF-8" standalone="no"?>
<!DOCTYPE svg PUBLIC "-//W3C//DTD SVG 1.1//EN" "http://www.w3.org/Graphics/SVG/1.1/DTD/svg11.dtd">
<!-- Created with Vectornator (http://vectornator.io/) -->
<svg height="100%" stroke-miterlimit="10" style="fill-rule:nonzero;clip-rule:evenodd;stroke-linecap:round;stroke-linejoin:round;" version="1.1" viewBox="10.0104 11.1015 265.458 264.87" width="100%" xml:space="preserve" xmlns="http://www.w3.org/2000/svg" xmlns:xlink="http://www.w3.org/1999/xlink">
<defs>
<path d="M189.134 98.9657L148.651 129.512L146.993 152.039L170.702 158.736L211.185 128.191L234.083 158.736L254.536 124.054L237.546 86.0091L207.365 60.0844L165.792 67.2906L189.134 98.9657Z" id="Fill"/>
<path d="M271.199 87.2963L257.436 84.332L254.554 73.985L247.005 60.6428L212.051 52.8985L222.374 85.8172L243.593 92.1637L253.326 86.657L270.906 91.188L271.199 87.2963Z" id="Fill_2"/>
</defs>
<g id="Слой-3">
<g opacity="1">
<path d="M269.438 168.897L253.255 168.897L246.626 172.561L238.497 158.724L217.937 158.724L210.777 161.642L217.937 174.707L229.028 178.111L231.363 187.534L242.868 198.58L258.355 188.953L260.697 178.652L269.438 168.897Z" fill="#749914" fill-rule="nonzero" opacity="1" stroke="#007aff" stroke-linecap="butt" stroke-linejoin="round" stroke-width="0.01"/>
<path d="M226.678 183.582L210.777 161.642L202.474 171.139L194.681 186.155L205.158 186.155L204.199 193.546L218.849 184.48L219.549 187.816L226.678 183.582Z" fill="#c0a268" fill-rule="nonzero" opacity="1" stroke="#007aff" stroke-linecap="butt" stroke-linejoin="round" stroke-width="0.01"/>
<path d="M207.297 186.155L205.086 186.155L204.708 189.585L207.297 189.476L207.297 186.155Z" fill="#ff0003" fill-rule="nonzero" opacity="1" stroke="#007aff" stroke-linecap="butt" stroke-linejoin="round" stroke-width="0.01"/>
<path d="M190.551 158.724L190.551 190.243L198.848 199.842L226.687 183.582L240.699 221.513L181.886 225.41L187.97 207.066L171.93 190.243L170.691 158.724L190.551 158.724Z" fill="#424242" fill-rule="nonzero" opacity="1" stroke="#007aff" stroke-linecap="butt" stroke-linejoin="round" stroke-width="0.01"/>
<path d="M207.163 228.806L208.691 254.58L198.337 254.58L198.337 241.693L192.982 254.58L179.775 254.58L194.233 228.806L207.163 228.806Z" fill="#ff0003" fill-rule="nonzero" opacity="1" stroke="#007aff" stroke-linecap="butt" stroke-linejoin="round" stroke-width="0.01"/>
<path d="M238.718 232.578L236.317 226.542L230.439 226.542L229.281 232.578L226.212 226.542L222.159 226.542L219.148 232.578L226.212 237.673L226.212 245.084L220.828 248.327L224.359 254.58L228.933 254.58L230.439 248.327L234.181 254.58L238.718 254.58L240.108 248.327L234.181 245.084L234.181 237.673L238.718 232.578Z" fill="#dfd6ab" fill-rule="nonzero" opacity="1" stroke="#007aff" stroke-linecap="butt" stroke-linejoin="round" stroke-width="0.01"/>
<path d="M216.254 177.727C216.254 173.857 213.141 170.72 209.301 170.72C205.461 170.72 202.347 173.857 202.347 177.727C202.347 181.596 205.461 184.733 209.301 184.733C213.141 184.733 216.254 181.596 216.254 177.727Z" fill="#ffffff" fill-rule="nonzero" opacity="1" stroke="#007aff" stroke-linecap="butt" stroke-linejoin="round" stroke-width="0.01"/>
<path d="M211.685 177.489C211.685 176.082 210.544 174.94 209.136 174.94C207.728 174.94 206.587 176.082 206.587 177.489C206.587 178.897 207.728 180.039 209.136 180.039C210.544 180.039 211.685 178.897 211.685 177.489Z" fill="#424242" fill-rule="nonzero" opacity="1" stroke="#007aff" stroke-linecap="butt" stroke-linejoin="round" stroke-width="0.01"/>
<path d="M210.084 129.952L199.444 120.965L192.925 129.952L175.413 129.952L186.216 136.806L178.466 151.963L194.681 143.987L199.444 151.963L205.695 143.987L213.59 151.963L210.777 140.856L226.678 140.856L213.59 134.394L222.566 123.186L210.084 129.952Z" fill="#fddf19" fill-rule="nonzero" opacity="0" stroke="#007aff" stroke-linecap="butt" stroke-linejoin="round" stroke-width="0.01"/>
</g>
<path d="M41.8566 40.7069L24.5048 24.4562L10.0104 52.8985L23.5685 40.625L27.2849 50.3328L29.7838 38.2457L38.7954 45.9263L47.6004 47.3455L49.5941 27.8791L60.1864 42.5272L52.5901 22.6846C52.5901 22.6846 69.6544 25.7647 71.1307 25.326C72.6071 24.8873 48.1557 11.1015 48.1557 11.1015L44.2946 32.6905L41.9812 28.1562L37.9555 19.3068L40.2817 28.1774L37.2881 29.9529L34.3091 22.6259L36.6048 31.6524L41.8566 40.7069Z" fill="#1a1a1a" fill-rule="nonzero" opacity="0" stroke="none"/>
<g opacity="1">
<use fill="#dfd6ab" fill-rule="nonzero" opacity="1" stroke="none" xlink:href="#Fill"/>
<clipPath clip-rule="nonzero" id="ClipPath">
<use xlink:href="#Fill"/>
</clipPath>
<g clip-path="url(#ClipPath)">
<path d="M148.645 44.7707C148.645 44.7707 238.359 178.959 250.657 175.878C262.955 172.797 267.491 132.3 273.438 127.835C279.386 123.369 256.735 74.3329 253.454 71.0643C250.172 67.7958 233.331 48.5909 223.732 44.7707C214.133 40.9505 178.572 38.8318 175.441 41.1945C173.105 42.957 158.123 45.2463 148.645 50.1301C145.418 51.7932 148.645 44.7707 148.645 44.7707Z" fill="#8a562e" fill-rule="nonzero" opacity="1" stroke="none"/>
<path d="M206.289 44.1117L220.065 89.6146L247.783 98.8914L257.977 61.9176L206.289 44.1117Z" fill="#623d21" fill-rule="nonzero" opacity="1" stroke="none"/>
</g>
</g>
<g opacity="1">
<path d="M134.724 123.503L142.818 131.371L158.92 131.371L159.098 135.414L142.818 135.578L132.738 126.406L134.724 123.503Z" fill="#3e3917" fill-rule="nonzero" opacity="1" stroke="none"/>
<path d="M154.227 143.599L142.883 143.411L133.486 149.557L135.229 152.221L144.625 146.075L154.25 146.3L154.227 143.599Z" fill="#3e3917" fill-rule="nonzero" opacity="1" stroke="none"/>
<path d="M163.031 149.118L165.607 150.106L162.456 154.573C162.456 154.573 159.444 158.734 159.134 159.421C158.825 160.107 156.174 165.984 156.174 165.984L154.757 171.642L151.883 170.346L156.527 160.051C156.527 160.051 158.811 154.986 159.197 154.132C159.582 153.277 163.031 149.118 163.031 149.118Z" fill="#3e3917" fill-rule="nonzero" opacity="1" stroke="none"/>
</g>
<path d="M26.1322 65.499L26.1322 275.967L147.898 275.967L147.898 266.975L105.118 260.656L105.118 179.938L105.118 134.764L118.242 134.764L118.242 121.397L72.0657 109.555L72.0657 85.6709L105.118 81.2962L105.118 65.499L26.1322 65.499Z" fill="#1a1a1a" fill-rule="nonzero" opacity="0" stroke="#007aff" stroke-linecap="butt" stroke-linejoin="round" stroke-width="0.01"/>
<use fill="#49542a" fill-rule="nonzero" opacity="1" stroke="none" xlink:href="#Fill_2"/>
<clipPath clip-rule="nonzero" id="ClipPath_2">
<use xlink:href="#Fill_2"/>
</clipPath>
<g clip-path="url(#ClipPath_2)">
<path d="M272.918 84.6245C273.263 85.2334 257.909 83.951 257.909 83.951L252.231 80.7064L242.943 74.1798L241.194 65.213L239.93 74.4383L234.18 69.181L232.177 60.7345L231.875 68.2433L215.83 55.8624L229.537 69.5659L220.888 74.4596L231.959 70.4377L238.447 76.7231L231.008 86.4048L241.508 77.2286L250.19 85.3525L256.951 89.0488L275.468 94.8425C275.468 94.8425 272.574 84.0155 272.918 84.6245Z" fill="#30371b" fill-rule="nonzero" opacity="1" stroke="none"/>
</g>
</g>
</svg>
