<?xml version="1.0" encoding="UTF-8" standalone="no"?>
<!DOCTYPE svg PUBLIC "-//W3C//DTD SVG 1.1//EN" "http://www.w3.org/Graphics/SVG/1.1/DTD/svg11.dtd">
<!-- Created with Vectornator (http://vectornator.io/) -->
<svg height="100%" stroke-miterlimit="10" style="fill-rule:nonzero;clip-rule:evenodd;stroke-linecap:round;stroke-linejoin:round;" version="1.1" viewBox="5.68434e-14 274.319 297.696 23.3562" width="100%" xml:space="preserve" xmlns="http://www.w3.org/2000/svg" xmlns:vectornator="http://vectornator.io" xmlns:xlink="http://www.w3.org/1999/xlink">
<defs/>
<g id="Layer">
<path d="M100.656 277.269C97.6813 277.157 94.6834 277.851 92.0001 279.394L81.367 285.506C75.5564 288.846 68.416 288.879 62.5753 285.591L53.5626 280.519C48.4635 277.647 42.2179 277.844 37.2814 280.988L30.3751 285.363C25.0228 288.754 18.2384 288.873 12.7501 285.707L8.52651e-14 278.584L0.0626142 297.538L297.68 297.675C297.68 297.675 297.716 284.849 297.68 283.929L290.66 289.142C288.857 290.481 286.381 290.445 284.617 289.055L274.92 281.408C269.6 277.213 262.142 277.056 256.651 281.025L249.103 286.48C245.556 289.044 240.704 288.799 237.434 285.891L233.781 282.643C230.346 279.59 225.245 279.353 221.541 282.074L215.291 286.668C211.461 289.483 206.236 289.45 202.442 286.585L196.175 281.853C192.064 278.749 186.423 278.646 182.201 281.597L175.987 285.94C171.378 289.162 165.196 288.953 160.815 285.428L155.369 281.045C150.916 277.462 144.633 277.246 139.944 280.514L133.427 285.058C128.403 288.56 121.739 288.6 116.674 285.158L109.156 280.05C106.597 278.31 103.631 277.381 100.656 277.269Z" fill="#67246e" fill-rule="nonzero" opacity="1" stroke="none"/>
</g>
</svg>
