<?xml version="1.0" encoding="UTF-8" standalone="no"?>
<!DOCTYPE svg PUBLIC "-//W3C//DTD SVG 1.1//EN" "http://www.w3.org/Graphics/SVG/1.1/DTD/svg11.dtd">
<!-- Created with Vectornator (http://vectornator.io/) -->
<svg height="100%" stroke-miterlimit="10" style="fill-rule:nonzero;clip-rule:evenodd;stroke-linecap:round;stroke-linejoin:round;" version="1.1" viewBox="8.52651e-14 277.658 297.696 20.0165" width="100%" xml:space="preserve" xmlns="http://www.w3.org/2000/svg" xmlns:vectornator="http://vectornator.io" xmlns:xlink="http://www.w3.org/1999/xlink">
<defs/>
<g id="Layer">
<path d="M94.6739 279.394L83.8608 285.656C77.71 289.192 70.2631 291.296 64.2912 287.466L56.5513 280.988C51.4522 278.116 45.4095 277.844 40.473 280.988L30.3751 287.466C25.0228 290.858 17.2094 290.633 11.721 287.466L1.13687e-13 278.584L0.0626142 297.538L297.68 297.675C297.68 297.675 297.716 284.849 297.68 283.929C297.68 283.929 294.126 292.979 287.605 291.411C281.085 289.843 280.709 277.658 271.597 277.658C262.485 277.658 259.748 290.205 251.158 291.411C242.569 292.617 239.301 278.893 231.572 279.143C223.844 279.392 221.152 291.369 212.118 291.866C203.083 292.363 201.143 279.467 191.754 279.394C182.366 279.321 181.363 290.636 171.282 291.12C161.201 291.604 159.738 278.71 148.957 278.584C138.175 278.458 135.503 294.731 125.085 290.873C114.666 287.016 116.326 285.426 109.869 281.417C103.412 277.407 97.3572 277.851 94.6739 279.394Z" fill="#67246e" fill-rule="nonzero" opacity="1" stroke="none"/>
</g>
</svg>
