<?xml version="1.0" encoding="UTF-8" standalone="no"?>
<!DOCTYPE svg PUBLIC "-//W3C//DTD SVG 1.1//EN" "http://www.w3.org/Graphics/SVG/1.1/DTD/svg11.dtd">
<!-- Created with Vectornator (http://vectornator.io/) -->
<svg height="100%" stroke-miterlimit="10" style="fill-rule:nonzero;clip-rule:evenodd;stroke-linecap:round;stroke-linejoin:round;" version="1.1" viewBox="5.36913 29.4505 44.2211 24.3669" width="100%" xml:space="preserve" xmlns="http://www.w3.org/2000/svg" xmlns:vectornator="http://vectornator.io" xmlns:xlink="http://www.w3.org/1999/xlink">
<defs/>
<g id="Layer">
<g opacity="1">
<path d="M6.73844 34.5784L15.9484 34.5784L19.721 36.4252L24.3475 29.4505L36.0482 29.4505L40.123 30.9215L36.0482 37.5066L29.736 39.2225L28.4074 43.9721L21.8596 49.54L13.046 44.6872L11.7132 39.4952L6.73844 34.5784Z" fill="#749914" fill-rule="nonzero" opacity="1" stroke="none"/>
<path d="M30.7708 41.9802L40.123 30.9215L45.0063 35.7085L49.5902 43.2771L43.428 43.2771L43.9919 47.0026L35.3754 42.4329L34.3187 46.3364L30.7708 41.9802Z" fill="#c0a268" fill-rule="nonzero" opacity="1" stroke="none"/>
<path d="M42.1698 43.2771L43.4703 43.2771L43.6926 45.0062L42.1698 44.9513L42.1698 43.2771Z" fill="#b83c3d" fill-rule="nonzero" opacity="1" stroke="none"/>
<path d="M30.7653 41.9802L25.0053 53.8173L47.1394 53.8173L30.7653 41.9802Z" fill="#000000" fill-rule="nonzero" opacity="1" stroke="none"/>
<path d="M36.349 38.4254C36.349 36.4252 38.3084 34.8038 40.7255 34.8038C43.1426 34.8038 45.102 36.4252 45.102 38.4254C45.102 40.4255 43.1426 42.047 40.7255 42.047C38.3084 42.047 36.349 40.4255 36.349 38.4254Z" fill="#ffffff" fill-rule="nonzero" opacity="1" stroke="none"/>
<path d="M39.7573 38.3663C39.7573 37.7158 40.3726 37.1884 41.1316 37.1884C41.8907 37.1884 42.506 37.7158 42.506 38.3663C42.506 39.0168 41.8907 39.5441 41.1316 39.5441C40.3726 39.5441 39.7573 39.0168 39.7573 38.3663Z" fill="#424242" fill-rule="nonzero" opacity="1" stroke="none"/>
</g>
</g>
</svg>
