<?xml version="1.0" encoding="UTF-8" standalone="no"?>
<!DOCTYPE svg PUBLIC "-//W3C//DTD SVG 1.1//EN" "http://www.w3.org/Graphics/SVG/1.1/DTD/svg11.dtd">
<!-- Created with Vectornator (http://vectornator.io/) -->
<svg height="100%" stroke-miterlimit="10" style="fill-rule:nonzero;clip-rule:evenodd;stroke-linecap:round;stroke-linejoin:round;" version="1.1" viewBox="5.68434e-14 31.4154 297.696 266.265" width="100%" xml:space="preserve" xmlns="http://www.w3.org/2000/svg" xmlns:vectornator="http://vectornator.io" xmlns:xlink="http://www.w3.org/1999/xlink">
<defs>
<path d="M74.4722 92.9813L159.499 42.95L233.672 102.516L222.205 102.516L222.205 153.15L198.231 153.619L203.221 172.281L233.672 182.341L232.714 186.915L202.225 180.334L208.544 208.027L202.225 210.369L195.107 182.341L183.117 208.027L177.545 205.218L191.591 175.91L187.731 153.619L121.216 153.15L118.106 173.897L138.072 203.383L132.495 205.218L113.342 173.897L111.763 208.068L107.262 208.068L108.489 173.897L85.9998 203.052L79.777 200.045L103.359 173.897L103.359 153.15L92.7226 153.15L92.7226 92.9559L74.4722 92.9813Z" id="Fill"/>
</defs>
<g id="Layer">
<g opacity="1">
<g opacity="1">
<path d="M33.5789 297.675C33.5789 297.675 51.8039 235.292 51.8039 235.292L93.3864 196.839L163.928 186.346L206.724 196.839L233.672 220.259L238.955 272.138L242.842 297.675C242.842 297.675 33.5789 297.675 33.5789 297.675Z" fill="#011d0f" fill-rule="nonzero" opacity="1" stroke="#4d492d" stroke-linecap="butt" stroke-linejoin="round" stroke-width="0.01"/>
<use fill="#201e0f" fill-rule="nonzero" opacity="1" stroke="none" xlink:href="#Fill"/>
<clipPath clip-rule="nonzero" id="ClipPath">
<use xlink:href="#Fill"/>
</clipPath>
<g clip-path="url(#ClipPath)">
<path d="M79.777 101.474L239.239 110.538L236.703 82.2172C236.703 82.2172 154.072 10.8343 154.072 10.8343L79.6783 76.6807L68.5951 99.8902L79.777 101.474Z" fill="#131a16" fill-rule="nonzero" opacity="1" stroke="none"/>
<path d="M91.4034 160.052L215.007 160.052C215.007 160.052 242.83 180.21 242.83 183.537C242.83 186.864 236.148 217.602 233.672 223.663C231.196 229.724 75.3812 223.663 75.3812 223.663L68.5951 190.774L91.4034 160.052Z" fill="#121212" fill-rule="nonzero" opacity="1" stroke="none"/>
<path d="M147.663 112.283L147.663 119.621L155.714 119.621L155.714 112.283L147.663 112.283ZM159.272 112.283L159.272 119.621L165.989 119.621L165.989 112.283L159.272 112.283ZM147.663 122.226L147.663 132.259L155.714 132.259L155.714 122.226L147.663 122.226ZM159.272 122.226L159.272 132.259L165.989 132.259L165.989 122.226L159.272 122.226Z" fill="#292610" fill-rule="nonzero" opacity="1" stroke="none"/>
</g>
</g>
<path d="M133.768 49.8943L145.396 39.3314L141.696 49.7447L153.182 40.8888L157.206 46.5173L160.773 53.1197L164.149 40.8888L175.097 49.9628L172.888 35.4451L181.425 46.0588L177.766 31.9544L166.134 31.4154L159.584 40.9959L152.556 32.2913L139.689 35.4592L133.768 49.8943Z" fill="#201212" fill-rule="nonzero" opacity="1" stroke="none"/>
<path d="M100.656 277.269C97.6813 277.157 94.6834 277.851 92.0001 279.394L81.367 285.506C75.5564 288.846 68.416 288.879 62.5753 285.591L53.5626 280.519C48.4635 277.647 42.2179 277.844 37.2814 280.988L30.3751 285.363C25.0228 288.754 18.2384 288.873 12.7501 285.707L8.52651e-14 278.584L0.0626142 297.538L297.68 297.675C297.68 297.675 297.716 284.849 297.68 283.929L290.66 289.142C288.857 290.481 286.381 290.445 284.617 289.055L274.92 281.408C269.6 277.213 262.142 277.056 256.651 281.025L249.103 286.48C245.556 289.044 240.704 288.799 237.434 285.891L233.781 282.643C230.346 279.59 225.245 279.353 221.541 282.074L215.291 286.668C211.461 289.483 206.236 289.45 202.442 286.585L196.175 281.853C192.064 278.749 186.423 278.646 182.201 281.597L175.987 285.94C171.378 289.162 165.196 288.953 160.815 285.428L155.369 281.045C150.916 277.462 144.633 277.246 139.944 280.514L133.427 285.058C128.403 288.56 121.739 288.6 116.674 285.158L109.156 280.05C106.597 278.31 103.631 277.381 100.656 277.269Z" fill="#67246e" fill-rule="nonzero" opacity="0" stroke="none"/>
</g>
</g>
</svg>
