<?xml version="1.0" encoding="UTF-8" standalone="no"?>
<!DOCTYPE svg PUBLIC "-//W3C//DTD SVG 1.1//EN" "http://www.w3.org/Graphics/SVG/1.1/DTD/svg11.dtd">
<!-- Created with Vectornator (http://vectornator.io/) -->
<svg height="100%" stroke-miterlimit="10" style="fill-rule:nonzero;clip-rule:evenodd;stroke-linecap:round;stroke-linejoin:round;" version="1.1" viewBox="5.68434e-14 42.4332 297.696 255.242" width="100%" xml:space="preserve" xmlns="http://www.w3.org/2000/svg" xmlns:vectornator="http://vectornator.io" xmlns:xlink="http://www.w3.org/1999/xlink">
<defs/>
<g id="Layer">
<g opacity="1">
<path d="M30.0073 297.675L54.9725 237.989L91.9824 217.633L141.028 202.346C141.028 202.346 191.529 208.432 197.489 209.909C203.449 211.385 236.498 226.574 236.498 226.574L252.371 286.966L252.371 297.675L32.1205 297.675L30.0073 297.675Z" fill="#201212" fill-rule="nonzero" opacity="1" stroke="none"/>
<path d="M75.257 141.787L67.8948 100.252L97.8611 111.504L103.099 74.8231L127.424 90.206L138.423 67.4631L150.112 90.206L172.697 67.4631L175.691 97.2107L202.848 79.6958L201.752 110.155L227.579 105.53L218.224 134.46L251.78 141.787L233.672 160.992L257.164 177.442L230.586 182.938L242.414 206.746L208.88 198.474L202.848 215.72L186.592 226.523L172.697 226.523L186.592 206.746L186.592 193.878L134.135 195.888L123.989 215.72C123.989 215.72 116.597 226.523 112.261 226.523C107.924 226.523 88.0092 226.523 88.0092 226.523L103.099 210.768L103.099 198.474L75.257 188.504L19.1534 193.878L75.257 141.787Z" fill="#131a16" fill-rule="nonzero" opacity="1" stroke="none"/>
<path d="M150.112 44.7077L155.572 62.6961L155.572 80.2324L155.572 96.9698C155.572 96.9698 163.022 111.626 166.692 114.568C170.362 117.51 189.902 134.46 189.902 134.46L201.136 141.964L211.384 103.441C211.384 103.441 208.504 75.0047 204.82 74.8231C201.136 74.6415 189.902 60.2847 189.902 60.2847L166.692 59.9731L161.262 60.2847L153.667 42.4332L150.112 44.7077Z" fill="#292610" fill-rule="nonzero" opacity="1" stroke="none"/>
<path d="M161.37 66.3834L167.539 74.8231L161.264 93.72L169.336 76.9445L181.925 88.1793L171.001 111.621L184.002 90.8149L190.664 103.901L185.46 126.606L192.856 106.618L196.347 119.084L197.489 134.46L198.615 119.084L194.535 105.248L206.097 105.248L192.856 102.5L185.579 89.449L203.131 84.8664L183.249 86.599L171.001 75.7705L185.579 68.9813L169.286 73.5413L161.37 66.3834Z" fill="#201e0f" fill-rule="nonzero" opacity="1" stroke="none"/>
<path d="M100.656 277.269C97.6813 277.157 94.6834 277.851 92.0001 279.394L81.367 285.506C75.5564 288.846 68.416 288.879 62.5753 285.591L53.5626 280.519C48.4635 277.647 42.2179 277.844 37.2814 280.988L30.3751 285.363C25.0228 288.754 18.2384 288.873 12.7501 285.707L8.52651e-14 278.584L0.0626142 297.538L297.68 297.675C297.68 297.675 297.716 284.849 297.68 283.929L290.66 289.142C288.857 290.481 286.381 290.445 284.617 289.055L274.92 281.408C269.6 277.213 262.142 277.056 256.651 281.025L249.103 286.48C245.556 289.044 240.704 288.799 237.434 285.891L233.781 282.643C230.346 279.59 225.245 279.353 221.541 282.074L215.291 286.668C211.461 289.483 206.236 289.45 202.442 286.585L196.175 281.853C192.064 278.749 186.423 278.646 182.201 281.597L175.987 285.94C171.378 289.162 165.196 288.953 160.815 285.428L155.369 281.045C150.916 277.462 144.633 277.246 139.944 280.514L133.427 285.058C128.403 288.56 121.739 288.6 116.674 285.158L109.156 280.05C106.597 278.31 103.631 277.381 100.656 277.269Z" fill="#67246e" fill-rule="nonzero" opacity="0" stroke="none"/>
<path d="M16.8236 190.066C16.8236 187.158 19.0754 184.802 21.8531 184.802C24.6308 184.802 26.8826 187.158 26.8826 190.066C26.8826 192.973 24.6308 195.33 21.8531 195.33C19.0754 195.33 16.8236 192.973 16.8236 190.066Z" fill="#292610" fill-rule="nonzero" opacity="1" stroke="none"/>
<path d="M60.5222 173.655L67.1578 165.895L79.5707 163.431L72.7173 170.058L60.5222 173.655Z" fill="#000000" fill-rule="nonzero" opacity="1" stroke="none"/>
</g>
</g>
</svg>
