<?xml version="1.0" encoding="UTF-8" standalone="no"?>
<!DOCTYPE svg PUBLIC "-//W3C//DTD SVG 1.1//EN" "http://www.w3.org/Graphics/SVG/1.1/DTD/svg11.dtd">
<!-- Created with Vectornator (http://vectornator.io/) -->
<svg height="100%" stroke-miterlimit="10" style="fill-rule:nonzero;clip-rule:evenodd;stroke-linecap:round;stroke-linejoin:round;" version="1.1" viewBox="5.68434e-14 34.3613 312.404 263.314" width="100%" xml:space="preserve" xmlns="http://www.w3.org/2000/svg" xmlns:vectornator="http://vectornator.io" xmlns:xlink="http://www.w3.org/1999/xlink">
<defs>
<path d="M123.114 151.201L119.139 157.843L113.013 174.274L120.973 180.461L128.78 179.314L130.341 183.066L121.639 184.681L113.756 181.032L109.03 174.735L110.093 168.281L114.832 155.85L106.343 151.92L94.6151 161.117L86.8002 164.643L74.4825 162.854L70.594 152.382L75.8827 150.268L75.7747 160.712L89.0312 160.916L102.988 150.347L100.977 140.955L109.822 135.708C109.822 135.708 107.718 129.99 107.718 129.99L83.89 132.019L68.851 146.396L82.4888 124.656L104.615 124.278L100.493 118.53L77.0699 118.386L62.354 135.041L75.0824 112.624L98.2301 112.343L83.5828 45.537L101.111 34.3663C101.111 34.3663 143.708 54.0823 147.333 55.7606C150.959 57.4389 142.87 91.0286 142.87 91.0286L176.384 69.2069L203.078 81.5622L223.886 100.783L153.829 136.878L162.872 157.74L151.609 180.267L154.808 158.738L146.523 138.231L139.294 139.682L147.127 162.544L139.975 182.249L142.487 163.471L133.524 140.9L125.734 142.147L123.114 151.201Z" id="Fill"/>
</defs>
<g id="Layer">
<g opacity="1">
<path d="M100.656 277.269C97.6813 277.157 94.6834 277.851 92.0001 279.394L81.367 285.506C75.5564 288.846 68.416 288.879 62.5753 285.591L53.5626 280.519C48.4635 277.647 42.2179 277.844 37.2814 280.988L30.3751 285.363C25.0228 288.754 18.2384 288.873 12.7501 285.707L8.52651e-14 278.584L0.0626142 297.538L297.68 297.675C297.68 297.675 297.716 284.849 297.68 283.929L290.66 289.142C288.857 290.481 286.381 290.445 284.617 289.055L274.92 281.408C269.6 277.213 262.142 277.056 256.651 281.025L249.103 286.48C245.556 289.044 240.704 288.799 237.434 285.891L233.781 282.643C230.346 279.59 225.245 279.353 221.541 282.074L215.291 286.668C211.461 289.483 206.236 289.45 202.442 286.585L196.175 281.853C192.064 278.749 186.423 278.646 182.201 281.597L175.987 285.94C171.378 289.162 165.196 288.953 160.815 285.428L155.369 281.045C150.916 277.462 144.633 277.246 139.944 280.514L133.427 285.058C128.403 288.56 121.739 288.6 116.674 285.158L109.156 280.05C106.597 278.31 103.631 277.381 100.656 277.269Z" fill="#67246e" fill-rule="nonzero" opacity="0" stroke="none"/>
<path d="M123.516 166.138L147.27 149.739L203.833 136.555C203.833 136.555 234.559 135.955 239.711 135.855C240.07 135.848 257.227 136.777 257.227 136.777C257.227 136.777 252.433 123.97 252.433 123.97L252.433 108.404L267.268 97.1494L275.436 119.66C275.436 119.66 265.755 142.741 267.698 143.348C274.396 145.441 279.619 147.154 279.619 147.154L312.404 168.204L311.966 183.196L279.26 159.458L265.389 149.403C265.389 149.403 264.947 164.564 264.814 169.133C264.68 173.702 254.232 184.324 254.232 184.324L243.203 192.673L235.085 169.714L239.11 156.454L253.777 147.659L226.926 148.183C226.926 148.183 211.682 147.398 203.48 148.641C195.278 149.885 180.128 157.607 180.128 157.607L157.676 166.802L146.525 175.297L127.627 166.058L123.516 166.138Z" fill="#011d0f" fill-rule="nonzero" opacity="1" stroke="none"/>
<path d="M195.733 122.369L203 180.109L184.045 192.143L168.888 196.291L182.701 209.65L162.944 258.377L148.026 253.74L128.134 247.559L121.802 220.554L98.481 240.331L73.3046 256.282L64.8993 255.928L47.7907 237.382L40.985 220.476L65.2271 189.367L37.5228 194.363L25.4125 190.6L12.896 186.71L10.487 172.356L24.1761 160.386L53.1059 151.452L21.6303 141.67L14.7815 139.542L20.6307 123.435L28.0939 107.828L46.1373 99.9113L71.9536 99.5509L175.841 116.188L195.733 122.369Z" fill="#201212" fill-rule="nonzero" opacity="1" stroke="none"/>
<g opacity="1">
<use fill="#292610" fill-rule="nonzero" opacity="1" stroke="#4d492d" stroke-linecap="butt" stroke-linejoin="round" stroke-width="0.01" xlink:href="#Fill"/>
<clipPath clip-rule="nonzero" id="ClipPath">
<use xlink:href="#Fill"/>
</clipPath>
<g clip-path="url(#ClipPath)">
<path d="M196.431 121.392L177.933 110.231L154.67 118.945L163.892 98.701L164.964 86.351L155.35 82.9726C155.35 82.9726 149.666 76.95 144.143 78.2029C138.62 79.4559 120.092 91.2647 120.092 91.2647L116.811 98.0668L108.27 77.207C108.27 77.207 110.531 72.0262 103.878 74.2529C97.2254 76.4796 86.7199 78.9105 86.7199 78.9105L78.8185 83.2017L82.4325 68.8504L105.556 64.4988L118.177 66.4873L121.156 80.209L139.749 70.1115C139.749 70.1115 153.646 65.511 154.095 66.3381C154.545 67.1653 168.514 69.9877 168.514 69.9877L174.568 81.1352L172.122 99.5317L185.893 101.988L202.564 108.448L214.51 115.405L196.431 121.392Z" fill="#201e0f" fill-rule="nonzero" opacity="1" stroke="#4d492d" stroke-linecap="butt" stroke-linejoin="round" stroke-width="0.01"/>
<path d="M126.528 142.015L131.384 139.378L127.955 136.713L137.456 136.08L132.405 133.473L141.927 130.823L140.693 122.58L149.186 121.196L139 117.443L147.04 113.153L138.645 112.412L151.804 108.483C151.804 108.483 150.467 101.93 148.752 102.862C147.036 103.794 153.458 97.3048 153.458 97.3048L139.882 99.9728L151.484 93.6716L137.818 96.1718L141.085 88.7456L131.61 99.4592L127.44 96.1561L129.507 107.954L120.766 105.349L124.838 112.848L116.794 112.512L119.313 116.013L111.938 115.149L114.873 123.032L109.635 121.104L112.597 126.558L111.6 132.401C111.6 132.401 107.081 134.7 109.34 133.55C111.6 132.401 102.562 134.964 102.562 134.964L95.5654 143.009L107.477 156.748L121.222 160.259L126.528 142.015Z" fill="#201e0f" fill-rule="nonzero" opacity="1" stroke="#4d492d" stroke-linecap="butt" stroke-linejoin="round" stroke-width="0.01"/>
<path d="M172.837 131.398C169.877 133.006 166.324 132.185 164.901 129.565C163.478 126.945 164.724 123.517 167.684 121.91C170.644 120.302 174.198 121.123 175.621 123.743C177.044 126.363 175.798 129.791 172.837 131.398Z" fill="#131a16" fill-rule="nonzero" opacity="1" stroke="#4d492d" stroke-linecap="butt" stroke-linejoin="round" stroke-width="0.01"/>
<path d="M99.0925 101.693C96.1323 103.3 92.579 102.479 91.156 99.8592C89.733 97.239 90.9791 93.8117 93.9394 92.204C96.8996 90.5964 100.453 91.4172 101.876 94.0374C103.299 96.6576 102.053 100.085 99.0925 101.693Z" fill="#131a16" fill-rule="nonzero" opacity="1" stroke="#4d492d" stroke-linecap="butt" stroke-linejoin="round" stroke-width="0.01"/>
<path d="M209.719 96.6065C200.115 101.822 188.615 99.2103 184.033 90.7728C179.45 82.3353 183.521 71.2672 193.125 66.0515C202.729 60.8359 214.229 63.4477 218.811 71.8852C223.393 80.3227 219.323 91.3908 209.719 96.6065Z" fill="#201e0f" fill-rule="nonzero" opacity="1" stroke="#4d492d" stroke-linecap="butt" stroke-linejoin="round" stroke-width="0.01"/>
<path d="M131.727 58.2114C122.123 63.427 110.623 60.8152 106.041 52.3777C101.459 43.9402 105.529 32.8721 115.133 27.6564C124.737 22.4408 136.237 25.0526 140.819 33.4901C145.402 41.9276 141.331 52.9957 131.727 58.2114Z" fill="#201e0f" fill-rule="nonzero" opacity="1" stroke="#4d492d" stroke-linecap="butt" stroke-linejoin="round" stroke-width="0.01"/>
<path d="M93.7325 104.604L105.958 133.174C105.958 133.174 82.1363 140.813 77.4662 143.349C72.7962 145.885 63.8419 163.638 63.8419 163.638L112.183 195.614L135.466 181.449L131.13 147.905L156.989 140.005L178.565 158.043L133.9 197.914L99.8682 202.848C99.8682 202.848 61.8645 179.567 61.825 179.494C61.7854 179.422 44.5398 151.752 44.5398 151.752L57.2681 124.407L83.9332 103.782L93.7325 104.604Z" fill="#121212" fill-rule="nonzero" opacity="1" stroke="#4d492d" stroke-linecap="butt" stroke-linejoin="round" stroke-width="0.01"/>
</g>
</g>
<path d="M119.59 137.269L133.885 129.506L137.904 123.416L133.888 120.296L127.557 123.657L127.8 118.302L123.663 116.487L117.293 122.195L119.59 137.269Z" fill="#201212" fill-rule="nonzero" opacity="1" stroke="#4d492d" stroke-linecap="butt" stroke-linejoin="round" stroke-width="0.01"/>
<path d="M133.791 184.425C131.206 185.829 128.115 185.134 126.887 182.874C125.659 180.613 126.76 177.642 129.345 176.238C131.93 174.834 135.022 175.528 136.249 177.789C137.477 180.05 136.377 183.021 133.791 184.425Z" fill="#131a16" fill-rule="nonzero" opacity="1" stroke="#4d492d" stroke-linecap="butt" stroke-linejoin="round" stroke-width="0.01"/>
<path d="M75.2185 157.459C72.6331 158.864 69.5419 158.169 68.3141 155.908C67.0864 153.648 68.1869 150.677 70.7723 149.273C73.3578 147.868 76.449 148.563 77.6767 150.824C78.9045 153.084 77.8039 156.055 75.2185 157.459Z" fill="#131a16" fill-rule="nonzero" opacity="1" stroke="#4d492d" stroke-linecap="butt" stroke-linejoin="round" stroke-width="0.01"/>
</g>
</g>
</svg>
