<?xml version="1.0" encoding="UTF-8" standalone="no"?>
<!DOCTYPE svg PUBLIC "-//W3C//DTD SVG 1.1//EN" "http://www.w3.org/Graphics/SVG/1.1/DTD/svg11.dtd">
<!-- Created with Vectornator (http://vectornator.io/) -->
<svg height="100%" stroke-miterlimit="10" style="fill-rule:nonzero;clip-rule:evenodd;stroke-linecap:round;stroke-linejoin:round;" version="1.1" viewBox="-0.233014 7.49907 298.146 290.176" width="100%" xml:space="preserve" xmlns="http://www.w3.org/2000/svg" xmlns:vectornator="http://vectornator.io" xmlns:xlink="http://www.w3.org/1999/xlink">
<defs/>
<g id="Layer">
<g opacity="1">
<path d="M142.51 53.1486L153.537 69.0626C153.537 69.0626 154.15 71.2143 154.354 76.8337C154.558 82.4532 152.922 92.5798 152.922 92.5798L159.417 80.6405L163.377 69.0626L161.255 100.258L152.332 123.765C152.332 123.765 161.235 120.338 168.339 114.834C175.443 109.33 180.749 101.75 180.749 101.75L170.612 136.659L111.843 161.435L105.599 125.067L120.918 139.425L147.107 138.571L127.244 116.023L117.115 78.0826L130.115 94.1028L150.147 103.07L136.863 56.9857L147.836 14.8019L119.54 31.2802L105.598 29.863L92.8523 22.3324L102.383 42.0898L108.848 54.7971L90.3999 45.777L72.5954 25.0532L82.3218 53.4666L97.2742 69.0626L77.706 63.5886L49.6255 29.863L59.8234 75.4166L78.3218 95.3924L52.118 89.3285C52.118 89.3285 20.9933 66.6813 21.4128 66.0547C21.8379 65.4195 30.0427 94.8985 30.0427 94.8985L49.6255 105.419L23.1369 101.75L-0.233014 70.0968L-0.120218 297.214L297.68 297.675L297.68 94.8985L249.034 45.618L221.427 63.5886L229.338 52.4158L227.407 33.9658L217.4 13.2068L215.031 43.8257L201.599 53.4666L206.21 36.755L201.599 22.3419L188.291 7.49907L191.667 44.1506L183.361 53.4666L186.157 42.0771L183.824 30.7978L175.614 18.9443L176.976 32.6177C176.976 32.6177 175.733 43.1233 172.307 47.1942C168.882 51.2651 164.782 53.1486 164.782 53.1486L166.113 42.0771L159.417 26.4704L158.59 40.6286L154.354 49.6578L142.51 53.1486Z" fill="#011d0f" fill-rule="nonzero" opacity="1" stroke="none"/>
<path d="M19.6379 231.387L15.5217 198.148L31.0959 177.891L50.6788 183.899L50.6788 158.575C50.6788 158.575 69.7371 146.652 72.6895 146.652C75.6418 146.652 93.0649 151.463 93.0649 151.463L107.27 177.891L107.27 208.58L163.636 198.148L184.683 172.199L212.473 159.842L228.729 183.899C228.729 183.899 246.685 172.199 250.072 172.199C253.459 172.199 268.294 177.891 268.294 177.891L282.039 183.899L282.039 231.387L234.761 270.346L19.6379 231.387Z" fill="#201e0f" fill-rule="nonzero" opacity="1" stroke="none"/>
<path d="M45.366 210.748L38.775 191.011L31.6146 185.322L26.403 177.92L25.0703 171.164L34.091 180.877L41.4075 189.794L44.7605 188.244L38.8114 175.374L37.695 164.189L43.4418 171.885L47.1019 187.162L55.6422 186.541L51.363 192.748L54.9271 210.239L45.366 210.748Z" fill="#000000" fill-rule="nonzero" opacity="0" stroke="none"/>
<path d="M225.721 164.709L226.991 161.539L230.137 162.455L230.137 167.262L241.631 223.934C241.631 223.934 200.644 213.255 200.593 213.562C200.542 213.869 214.96 175.659 214.96 175.659L209.126 173.338L207.989 169.027L213.643 168.896L207.989 167.262L207.989 164.709L213.221 164.73L214.96 162.785L218.651 163.23L220.072 161.022L223.852 161.022L223.754 164.313L225.721 164.709Z" fill="#000000" fill-rule="nonzero" opacity="0" stroke="none"/>
<path d="M5.68434e-14 218.024L13.9476 212.736L29.3494 215.951L39.3166 222.832L41.4794 211.511L49.5902 202.758L63.3245 196.179L75.6477 197.483L70.9028 186.75L76.5307 174.527L87.2252 167.404L99.7749 170.143L105.533 157.085L119.505 148.156L136.708 148.838L154.152 160.413L172.034 155.259L186.296 164.496L191.704 174.584L186.296 186.029L203.783 181.951L217.43 186.029L227.002 201.675L230.778 213.555L236.291 204.252C236.291 204.252 249.659 195.939 249.659 195.939L265.786 192.039L285.028 202.483L297.913 232.707L297.913 297.675L2.84217e-14 297.675L5.68434e-14 218.024Z" fill="#292610" fill-rule="nonzero" opacity="1" stroke="none"/>
<path d="M100.656 277.269C97.6813 277.157 94.6834 277.851 92.0001 279.394L81.367 285.506C75.5564 288.846 68.416 288.879 62.5753 285.591L53.5626 280.519C48.4635 277.647 42.2179 277.844 37.2814 280.988L30.3751 285.363C25.0228 288.754 18.2384 288.873 12.7501 285.707L8.52651e-14 278.584L0.0626142 297.538L297.68 297.675C297.68 297.675 297.716 284.849 297.68 283.929L290.66 289.142C288.857 290.481 286.381 290.445 284.617 289.055L274.92 281.408C269.6 277.213 262.142 277.056 256.651 281.025L249.103 286.48C245.556 289.044 240.704 288.799 237.434 285.891L233.781 282.643C230.346 279.59 225.245 279.353 221.541 282.074L215.291 286.668C211.461 289.483 206.236 289.45 202.442 286.585L196.175 281.853C192.064 278.749 186.423 278.646 182.201 281.597L175.987 285.94C171.378 289.162 165.196 288.953 160.815 285.428L155.369 281.045C150.916 277.462 144.633 277.246 139.944 280.514L133.427 285.058C128.403 288.56 121.739 288.6 116.674 285.158L109.156 280.05C106.597 278.31 103.631 277.381 100.656 277.269Z" fill="#67246e" fill-rule="nonzero" opacity="0" stroke="none"/>
</g>
</g>
</svg>
