<?xml version="1.0" encoding="UTF-8" standalone="no"?>
<!DOCTYPE svg PUBLIC "-//W3C//DTD SVG 1.1//EN" "http://www.w3.org/Graphics/SVG/1.1/DTD/svg11.dtd">
<!-- Created with Vectornator (http://vectornator.io/) -->
<svg height="100%" stroke-miterlimit="10" style="fill-rule:nonzero;clip-rule:evenodd;stroke-linecap:round;stroke-linejoin:round;" version="1.1" viewBox="5.68434e-14 11.9853 297.696 287.482" width="100%" xml:space="preserve" xmlns="http://www.w3.org/2000/svg" xmlns:vectornator="http://vectornator.io" xmlns:xlink="http://www.w3.org/1999/xlink">
<defs>
<path d="M224.266 96.9805L238.406 101.418C238.406 101.418 238.555 116.365 238.557 116.484C238.558 116.602 231.545 120.158 231.545 120.158L221.773 125.607L238.693 130.106L234.659 139.884L207.361 140.156L191.977 149.634L193.196 173.902L207.854 189.521L192.321 184.186L192.443 196.413L185.167 189.191L169.965 201.597L183.447 181.803L176.593 149.788L151.707 158.291L158.68 177.792L132.532 183.637L132.787 190.27L135.973 210.043L125.932 197.076L109.319 208.972L120.351 194.334L92.8225 187.452L144.238 173.34L121.933 150.333L129.962 117.567L115.767 101.523L134.852 68.548L121.344 66.3198L96.3224 66.4828L113.319 55.4343L101.514 47.9348L120.298 45.0058L126.463 30.486L129.889 56.7965L149.155 62.6921L135.436 86.398L173.633 85.3867L179.077 68.548L179.47 51.1148L185.167 62.5195L193.196 47.9348L193.196 62.5195L207.361 53.3608L189.393 71.3076L187.731 84.1082L224.266 96.9805Z" id="Fill"/>
</defs>
<g id="Layer">
<g opacity="1">
<g opacity="1">
<use fill="#011d0f" fill-rule="nonzero" opacity="1" stroke="none" xlink:href="#Fill"/>
<clipPath clip-rule="nonzero" id="ClipPath">
<use xlink:href="#Fill"/>
</clipPath>
<g clip-path="url(#ClipPath)">
<path d="M147.715 98.075C145.184 98.075 143.122 100.009 143.122 102.4C143.122 104.792 145.184 106.75 147.715 106.75C150.246 106.75 152.283 104.792 152.283 102.4C152.283 100.009 150.246 98.075 147.715 98.075ZM170.484 102.643C167.953 102.643 165.916 104.577 165.916 106.969C165.916 109.36 167.953 111.294 170.484 111.294C173.015 111.294 175.077 109.36 175.077 106.969C175.077 104.577 173.015 102.643 170.484 102.643ZM192.086 111.707C189.555 111.707 187.494 113.665 187.494 116.057C187.494 118.448 189.555 120.382 192.086 120.382C194.618 120.382 196.679 118.448 196.679 116.057C196.679 113.665 194.618 111.707 192.086 111.707ZM159.282 118.414C156.751 118.414 154.689 120.372 154.689 122.764C154.689 125.155 156.751 127.089 159.282 127.089C161.813 127.089 163.874 125.155 163.874 122.764C163.874 120.372 161.813 118.414 159.282 118.414ZM175.101 133.99C172.57 133.99 170.508 135.924 170.508 138.315C170.508 140.707 172.57 142.641 175.101 142.641C177.632 142.641 179.669 140.707 179.669 138.315C179.669 135.924 177.632 133.99 175.101 133.99ZM205.403 135.812C202.871 135.812 200.834 137.77 200.834 140.162C200.834 142.554 202.871 144.487 205.403 144.487C207.934 144.488 209.995 142.554 209.995 140.162C209.995 137.77 207.934 135.812 205.403 135.812ZM138.408 137.951C135.877 137.951 133.84 139.885 133.84 142.276C133.84 144.668 135.877 146.602 138.408 146.602C140.939 146.602 143.001 144.668 143.001 142.276C143.001 139.885 140.939 137.951 138.408 137.951Z" fill="#201212" fill-rule="nonzero" opacity="1" stroke="none"/>
</g>
</g>
<g opacity="1">
<path d="M206.672 91.7415L208.715 87.7775L207.455 80.0937L212.244 85.068L218.48 78.2859L215.355 86.6886L222.479 83.3899L215.935 90.2227L213.673 93.7769L206.672 91.7415Z" fill="#201e0f" fill-rule="nonzero" opacity="1" stroke="none"/>
<path d="M270.279 230.024L243.09 229.955L233.984 221.078L232.719 206.892L255.236 207.453L234.358 200.241L237.242 188.54C237.242 188.54 256.049 185.822 257.234 185.274C258.42 184.726 274.861 189.619 274.861 189.619L277.911 213.042L270.279 230.024Z" fill="#011d0f" fill-rule="nonzero" opacity="1" stroke="none"/>
<path d="M172.197 11.9853L181.485 30.4073L178.614 39.6215L169.464 45.3557L162.112 29.926L164.408 46.5336L155.512 48.6056C155.512 48.6056 147.219 36.8138 146.442 36.2001C145.664 35.5864 143.325 22.7787 143.325 22.7787L158.103 12.6602L172.197 11.9853Z" fill="#011d0f" fill-rule="nonzero" opacity="1" stroke="none"/>
<path d="M15.7702 145.827L49.9417 121.906L69.1469 125.084L83.1692 141.894L54.4283 161.069L86.9431 151.747L93.5819 169.082C93.5819 169.082 72.3692 189.123 71.3623 190.862C70.3555 192.602 45.4401 200.936 45.4401 200.936L21.081 174.028L15.7702 145.827Z" fill="#011d0f" fill-rule="nonzero" opacity="1" stroke="none"/>
<path d="M245.266 191.475L261.771 207.879L240.797 218.658L265.923 209.962L267.849 226.597L270.238 207.879L273.594 191.475L265.923 204.881L245.266 191.475Z" fill="#121212" fill-rule="nonzero" opacity="1" stroke="none"/>
<path d="M154.74 42.1664L160.157 25.3571L174.64 35.8431L160.138 21.8311L170.716 14.8079L157.25 19.6278L145.014 22.9977L156.706 23.5783L154.74 42.1664Z" fill="#121212" fill-rule="nonzero" opacity="1" stroke="none"/>
<path d="M80.9417 172.458L45.8554 166.3L62.72 134.158L38.8201 167.334L21.8226 148.012L35.233 173.776L45.4024 197.471L43.274 173.755L80.9417 172.458Z" fill="#121212" fill-rule="nonzero" opacity="1" stroke="none"/>
<path d="M74.1882 96.0801C70.9919 96.651 68.8383 99.5578 69.3792 102.586C69.9201 105.614 72.9498 107.612 76.1462 107.041C79.3425 106.47 81.4931 103.547 80.9522 100.519C80.4113 97.4905 77.3846 95.5091 74.1882 96.0801ZM89.2664 108.992C86.0701 109.563 83.9195 112.487 84.4604 115.515C85.0013 118.543 88.028 120.524 91.2244 119.953C94.4207 119.382 96.5743 116.476 96.0334 113.448C95.4925 110.419 92.4628 108.421 89.2664 108.992ZM110.545 116.502C107.349 117.073 105.198 119.996 105.739 123.025C106.28 126.053 109.31 128.051 112.506 127.48C115.702 126.909 117.853 123.985 117.312 120.957C116.771 117.929 113.741 115.931 110.545 116.502Z" fill="#121212" fill-rule="nonzero" opacity="1" stroke="none"/>
<path d="M61.0381 91.0245C63.7256 89.2024 64.5101 85.6709 62.7839 83.1248C61.0577 80.5788 57.4771 79.9864 54.7896 81.8086C52.1022 83.6307 51.3271 87.1762 53.0533 89.7222C54.7795 92.2682 58.3506 92.8467 61.0381 91.0245ZM42.0107 85.3645C44.6981 83.5424 45.4732 79.9969 43.747 77.4509C42.0208 74.9049 38.4497 74.3264 35.7622 76.1485C33.0747 77.9707 32.2902 81.5022 34.0164 84.0482C35.7426 86.5942 39.3232 87.1866 42.0107 85.3645ZM19.5176 87.1625C22.2051 85.3403 22.9801 81.7948 21.2539 79.2488C19.5277 76.7028 15.9471 76.1104 13.2596 77.9325C10.5722 79.7547 9.79712 83.3002 11.5233 85.8462C13.2496 88.3922 16.8301 88.9846 19.5176 87.1625Z" fill="#121212" fill-rule="nonzero" opacity="1" stroke="none"/>
<path d="M210.036 105.112L223.685 104.976L232.331 107.134L221.24 111.78L210.058 107.357L210.036 105.112Z" fill="#000000" fill-rule="nonzero" opacity="1" stroke="none"/>
<path d="M17.1945 297.675L39.3166 256L103.731 229.253C103.731 229.253 157.664 221.693 163.965 220.937C170.266 220.181 204.871 233.538 211.384 235.302C217.898 237.066 273.092 293.643 274.1 297.675C275.108 301.707 17.1945 297.675 17.1945 297.675Z" fill="#011d0f" fill-rule="nonzero" opacity="1" stroke="none"/>
</g>
<path d="M100.656 277.269C97.6813 277.157 94.6834 277.851 92.0001 279.394L81.367 285.506C75.5564 288.846 68.416 288.879 62.5753 285.591L53.5626 280.519C48.4635 277.647 42.2179 277.844 37.2814 280.988L30.3751 285.363C25.0228 288.754 18.2384 288.873 12.7501 285.707L8.52651e-14 278.584L0.0626142 297.538L297.68 297.675C297.68 297.675 297.716 284.849 297.68 283.929L290.66 289.142C288.857 290.481 286.381 290.445 284.617 289.055L274.92 281.408C269.6 277.213 262.142 277.056 256.651 281.025L249.103 286.48C245.556 289.044 240.704 288.799 237.434 285.891L233.781 282.643C230.346 279.59 225.245 279.353 221.541 282.074L215.291 286.668C211.461 289.483 206.236 289.45 202.442 286.585L196.175 281.853C192.064 278.749 186.423 278.646 182.201 281.597L175.987 285.94C171.378 289.162 165.196 288.953 160.815 285.428L155.369 281.045C150.916 277.462 144.633 277.246 139.944 280.514L133.427 285.058C128.403 288.56 121.739 288.6 116.674 285.158L109.156 280.05C106.597 278.31 103.631 277.381 100.656 277.269Z" fill="#67246e" fill-rule="nonzero" opacity="0" stroke="none"/>
</g>
</g>
</svg>
