<?xml version="1.0" encoding="UTF-8" standalone="no"?>
<!DOCTYPE svg PUBLIC "-//W3C//DTD SVG 1.1//EN" "http://www.w3.org/Graphics/SVG/1.1/DTD/svg11.dtd">
<!-- Created with Vectornator (http://vectornator.io/) -->
<svg height="100%" stroke-miterlimit="10" style="fill-rule:nonzero;clip-rule:evenodd;stroke-linecap:round;stroke-linejoin:round;" version="1.1" viewBox="5.68434e-14 16.1774 297.696 281.498" width="100%" xml:space="preserve" xmlns="http://www.w3.org/2000/svg" xmlns:vectornator="http://vectornator.io" xmlns:xlink="http://www.w3.org/1999/xlink">
<defs>
<path d="M53.4929 166.495L74.8684 150.104L123.848 150.104L173.694 188.341L190.381 233.203L190.381 262.102L190.381 297.675L201.868 297.675L201.868 233.203L209.79 188.341L225.274 196.143L225.274 215.439L233.672 228.114L256.882 228.114L257.164 209.104L272.883 215.439L286.653 196.143L278.649 175.874L262.118 179.862L265.786 161.054C265.786 161.054 255.758 150.104 252.371 150.104C248.983 150.104 233.672 161.054 233.672 161.054L228.435 188.341L211.384 179.862L211.384 150.104L209.79 94.3527L190.381 60.2847L183.594 67.4631L197.489 100.657L201.868 161.054L197.489 209.104L183.594 175.351L123.848 136.914L74.8684 134.46L45.4879 161.054L21.3732 169.92L15.9039 209.104L45.4879 233.203L74.8684 202.744L67.1578 175.874L53.4929 166.495Z" id="Fill"/>
</defs>
<g id="Layer">
<g opacity="1">
<path d="M190.96 60.2847L203.502 62.6961L211.384 56.8724L209.79 41.6339L201.172 41.6339L209.79 28.6358L197.489 21.0304L186.481 23.7782L175.986 16.1774L164.467 21.0304L164.467 31.3481L154.152 39.4368L154.152 47.2737L164.467 53.8173L162.164 62.6961L172.146 74.6415L183.594 67.4631L190.96 60.2847Z" fill="#131a16" fill-rule="nonzero" opacity="1" stroke="none"/>
<path d="M168.962 42.8221C168.962 35.7332 175.143 29.9866 182.768 29.9866C190.393 29.9866 196.574 35.7332 196.574 42.8221C196.574 49.911 190.393 55.6576 182.768 55.6576C175.143 55.6576 168.962 49.911 168.962 42.8221Z" fill="#292610" fill-rule="nonzero" opacity="1" stroke="none"/>
<path d="M45.95 161.448L20.7646 136.914L51.8039 156.584L93.3526 161.448L51.8039 164.212L87.1815 174.791L45.95 175.351L19.046 156.584L45.95 161.448Z" fill="#011d0f" fill-rule="nonzero" opacity="1" stroke="none"/>
<path d="M123.848 136.914L119.505 118.11L102.396 118.11L87.3978 108.37L87.3978 88.0666L102.396 87.7402L113.219 100.657L113.219 79.9201L123.848 67.4631C123.848 67.4631 132.606 67.4631 136.828 67.4631C141.05 67.4631 141.05 92.4441 141.05 92.4441L130.845 102.189L154.152 108.37L159.14 118.11L154.152 134.46L123.848 118.11L130.845 142.695L123.848 136.914Z" fill="#011d0f" fill-rule="nonzero" opacity="1" stroke="none"/>
<path d="M117.171 110.628L98.5078 100.657L117.171 105.643L127.917 81.1252L123.269 105.643L148.781 119.112L117.171 110.628Z" fill="#201212" fill-rule="nonzero" opacity="1" stroke="none"/>
<path d="M131.124 154.466L127.755 161.167L123.582 160.183L122.266 163.878C122.266 163.878 123.824 169.728 124.679 170.433C125.533 171.138 136.828 175.688 136.828 175.688L139.364 170.433L143.966 162.158L142.288 160.183L138.237 168.193L135.502 165.582C135.502 165.582 139.364 159.155 139.364 158.676C139.364 158.197 136.828 156.678 136.828 156.678L133.574 165.582L131.124 162.158L133.574 156.678L131.124 154.466Z" fill="#201212" fill-rule="nonzero" opacity="1" stroke="none"/>
<path d="M122.266 163.878L116.116 163.878L122.266 165.377L116.843 169.011L124.245 166.801L122.266 163.878Z" fill="#201212" fill-rule="nonzero" opacity="1" stroke="none"/>
<path d="M114.489 163.796C114.489 163.118 115.087 162.569 115.825 162.569C116.563 162.569 117.161 163.118 117.161 163.796C117.161 164.474 116.563 165.023 115.825 165.023C115.087 165.023 114.489 164.474 114.489 163.796Z" fill="#131a16" fill-rule="nonzero" opacity="1" stroke="none"/>
<path d="M114.993 169.173C114.993 168.496 115.592 167.946 116.33 167.946C117.068 167.946 117.666 168.496 117.666 169.173C117.666 169.851 117.068 170.401 116.33 170.401C115.592 170.401 114.993 169.851 114.993 169.173Z" fill="#131a16" fill-rule="nonzero" opacity="1" stroke="none"/>
<path d="M126.527 170.839L121.943 174.016C121.943 174.016 123.305 177.419 123.865 177.58C124.426 177.74 126.988 176.258 126.988 176.258L128.39 174.016L129.791 172.655L128.39 177.58L129.791 180.142L131.913 180.142L133.635 179.101L132.754 175.377L130.35 169.272L126.527 170.839Z" fill="#131a16" fill-rule="nonzero" opacity="1" stroke="none"/>
<g opacity="1">
<use fill="#011d0f" fill-rule="nonzero" opacity="1" stroke="none" xlink:href="#Fill"/>
<clipPath clip-rule="nonzero" id="ClipPath">
<use xlink:href="#Fill"/>
</clipPath>
<g clip-path="url(#ClipPath)">
<path d="M42.9666 152.794L77.2826 168.961L82.6316 220.981L49.5902 245.108L9.26844 220.981L9.26844 180.986L18.2429 152.794L42.9666 152.794Z" fill="#201212" fill-rule="nonzero" opacity="1" stroke="#007aff" stroke-linecap="butt" stroke-linejoin="round" stroke-width="0.01"/>
<path d="M233.672 191.837L244.148 189.675L248.983 164.212L248.983 189.675L272.994 194.434L248.983 194.434L244.148 220.916L244.148 194.434L233.672 191.837Z" fill="#201212" fill-rule="nonzero" opacity="1" stroke="none"/>
<path d="M15.9039 180.111C15.9039 177.482 18.0801 175.351 20.7646 175.351C23.449 175.351 25.6252 177.482 25.6252 180.111C25.6252 182.739 23.449 184.87 20.7646 184.87C18.0801 184.87 15.9039 182.739 15.9039 180.111Z" fill="#1f1b14" fill-rule="nonzero" opacity="1" stroke="none"/>
<path d="M19.046 213.133C19.046 210.504 21.2222 208.373 23.9067 208.373C26.5912 208.373 28.7674 210.504 28.7674 213.133C28.7674 215.762 26.5912 217.893 23.9067 217.893C21.2222 217.893 19.046 215.762 19.046 213.133Z" fill="#1f1b14" fill-rule="nonzero" opacity="1" stroke="none"/>
<path d="M41.0894 206.671C41.0894 204.042 43.2655 201.911 45.95 201.911C48.6345 201.911 50.8107 204.042 50.8107 206.671C50.8107 209.299 48.6345 211.43 45.95 211.43C43.2655 211.43 41.0894 209.299 41.0894 206.671Z" fill="#1f1b14" fill-rule="nonzero" opacity="1" stroke="none"/>
<path d="M34.4559 224.753C34.4559 222.124 36.6321 219.993 39.3166 219.993C42.0011 219.993 44.1773 222.124 44.1773 224.753C44.1773 227.382 42.0011 229.513 39.3166 229.513C36.6321 229.513 34.4559 227.382 34.4559 224.753Z" fill="#1f1b14" fill-rule="nonzero" opacity="1" stroke="none"/>
<path d="M57.5774 216.156C57.5774 213.528 59.7536 211.397 62.438 211.397C65.1225 211.397 67.2987 213.528 67.2987 216.156C67.2987 218.785 65.1225 220.916 62.438 220.916C59.7536 220.916 57.5774 218.785 57.5774 216.156Z" fill="#1f1b14" fill-rule="nonzero" opacity="1" stroke="none"/>
<path d="M59.4306 194.434C59.4306 191.806 61.6068 189.675 64.2912 189.675C66.9757 189.675 69.1519 191.806 69.1519 194.434C69.1519 197.063 66.9757 199.194 64.2912 199.194C61.6068 199.194 59.4306 197.063 59.4306 194.434Z" fill="#1f1b14" fill-rule="nonzero" opacity="1" stroke="none"/>
<path d="M59.8026 174.791C59.8026 172.163 61.9788 170.032 64.6632 170.032C67.3477 170.032 69.5239 172.163 69.5239 174.791C69.5239 177.42 67.3477 179.551 64.6632 179.551C61.9788 179.551 59.8026 177.42 59.8026 174.791Z" fill="#1f1b14" fill-rule="nonzero" opacity="1" stroke="none"/>
<path d="M33.5789 175.351C33.5789 172.722 35.7551 170.591 38.4396 170.591C41.124 170.591 43.3002 172.722 43.3002 175.351C43.3002 177.98 41.124 180.111 38.4396 180.111C35.7551 180.111 33.5789 177.98 33.5789 175.351Z" fill="#1f1b14" fill-rule="nonzero" opacity="1" stroke="none"/>
<path d="M28.2333 194.434C28.2333 191.806 30.4095 189.675 33.094 189.675C35.7784 189.675 37.9546 191.806 37.9546 194.434C37.9546 197.063 35.7784 199.194 33.094 199.194C30.4095 199.194 28.2333 197.063 28.2333 194.434Z" fill="#1f1b14" fill-rule="nonzero" opacity="1" stroke="none"/>
<path d="M45.95 187.077C45.95 184.448 48.1262 182.317 50.8107 182.317C53.4952 182.317 55.6714 184.448 55.6714 187.077C55.6714 189.706 53.4952 191.837 50.8107 191.837C48.1262 191.837 45.95 189.706 45.95 187.077Z" fill="#1f1b14" fill-rule="nonzero" opacity="1" stroke="none"/>
</g>
</g>
<path d="M100.656 277.269C97.6813 277.157 94.6834 277.851 92.0001 279.394L81.367 285.506C75.5564 288.846 68.416 288.879 62.5753 285.591L53.5626 280.519C48.4635 277.647 42.2179 277.844 37.2814 280.988L30.3751 285.363C25.0228 288.754 18.2384 288.873 12.7501 285.707L8.52651e-14 278.584L0.0626142 297.538L297.68 297.675C297.68 297.675 297.716 284.849 297.68 283.929L290.66 289.142C288.857 290.481 286.381 290.445 284.617 289.055L274.92 281.408C269.6 277.213 262.142 277.056 256.651 281.025L249.103 286.48C245.556 289.044 240.704 288.799 237.434 285.891L233.781 282.643C230.346 279.59 225.245 279.353 221.541 282.074L215.291 286.668C211.461 289.483 206.236 289.45 202.442 286.585L196.175 281.853C192.064 278.749 186.423 278.646 182.201 281.597L175.987 285.94C171.378 289.162 165.196 288.953 160.815 285.428L155.369 281.045C150.916 277.462 144.633 277.246 139.944 280.514L133.427 285.058C128.403 288.56 121.739 288.6 116.674 285.158L109.156 280.05C106.597 278.31 103.631 277.381 100.656 277.269Z" fill="#67246e" fill-rule="nonzero" opacity="0" stroke="none"/>
</g>
</g>
</svg>
