<?xml version="1.0" encoding="UTF-8" standalone="no"?>
<!DOCTYPE svg PUBLIC "-//W3C//DTD SVG 1.1//EN" "http://www.w3.org/Graphics/SVG/1.1/DTD/svg11.dtd">
<!-- Created with Vectornator (http://vectornator.io/) -->
<svg height="100%" stroke-miterlimit="10" style="fill-rule:nonzero;clip-rule:evenodd;stroke-linecap:round;stroke-linejoin:round;" version="1.1" viewBox="5.68434e-14 21.1462 297.696 276.534" width="100%" xml:space="preserve" xmlns="http://www.w3.org/2000/svg" xmlns:vectornator="http://vectornator.io" xmlns:xlink="http://www.w3.org/1999/xlink">
<defs>
<path d="M45.277 297.675L64.241 203.022L87.7564 173.513L119.505 149.225L19.6857 161.363L39.3166 91.4595L87.7564 66.4441L154.152 56.3647L209.79 88.304L248.983 116.231L265.786 152.629L190.156 152.629L221.257 193.764L233.672 263.06L240.802 297.675L45.277 297.675Z" id="Fill"/>
</defs>
<g id="Layer">
<g opacity="1">
<g opacity="1">
<use fill="#1e1d10" fill-rule="nonzero" opacity="1" stroke="#4d492d" stroke-linecap="butt" stroke-linejoin="round" stroke-width="0.01" xlink:href="#Fill"/>
<clipPath clip-rule="nonzero" id="ClipPath">
<use xlink:href="#Fill"/>
</clipPath>
<g clip-path="url(#ClipPath)">
<path d="M19.9576 174.618L99.2637 156.263L207.542 156.263L257.164 174.618C257.164 174.618 255.758 245.758 252.371 264.833C248.983 283.909 211.384 369.293 211.384 369.293C211.384 369.293 59.8638 308.432 49.5902 308.432C39.3166 308.432 19.9576 174.618 19.9576 174.618Z" fill="#292610" fill-rule="nonzero" opacity="1" stroke="none"/>
<path d="M132.85 124.377L132.85 121.283L142.413 121.283L142.413 124.377L132.85 124.377Z" fill="#000000" fill-rule="nonzero" opacity="0" stroke="none"/>
<path d="M132.099 133.367L153.289 134.12L163.207 134.875L179.082 139.501L167.421 143.502L153.283 141.657L132.099 135.376L132.099 133.367Z" fill="#000000" fill-rule="nonzero" opacity="0" stroke="none"/>
<path d="M150.112 135.376L151.342 139.013L152.979 135.376L155.279 140.051L156.41 135.787L158.671 140.858L159.685 135.787L162.063 140.858L163.428 135.787L150.112 135.376Z" fill="#363636" fill-rule="nonzero" opacity="0" stroke="none"/>
<path d="M122.23 114.023L141.604 117.605L151.051 121.012L145.517 117.168L136.404 114.472L131.419 112.997L122.23 114.023Z" fill="#000000" fill-rule="nonzero" opacity="0" stroke="none"/>
<path d="M163.243 122.32L170.122 115.822L181.357 114.657L172.824 118.837L163.243 122.32Z" fill="#000000" fill-rule="nonzero" opacity="0" stroke="none"/>
<path d="M172.22 125.688L172.22 121.811L180.857 121.811L180.857 125.688L172.22 125.688Z" fill="#000000" fill-rule="nonzero" opacity="0" stroke="none"/>
</g>
</g>
<path d="M106.26 61.2493C106.26 61.2493 76.1766 77.7058 74.4173 83.2C72.6581 88.6942 74.4173 100.657 74.4173 100.657L106.26 70.2829L96.1161 100.657L124.01 70.6092L124.01 100.657L140.488 70.2829L147.864 100.657L151.904 70.6092L170.546 92.805L170.546 70.6092L207.542 92.805L181.346 61.2493L140.488 50.0058L106.26 61.2493Z" fill="#062d19" fill-rule="nonzero" opacity="1" stroke="none"/>
<path d="M126.258 62.6961L118.366 27.8238L132.801 38.6912L144.62 21.1462L156.058 38.6912L167.922 24.3391L160.392 62.6961L126.258 62.6961Z" fill="#292610" fill-rule="nonzero" opacity="1" stroke="none"/>
<path d="M100.656 277.269C97.6813 277.157 94.6834 277.851 92.0001 279.394L81.367 285.506C75.5564 288.846 68.416 288.879 62.5753 285.591L53.5626 280.519C48.4635 277.647 42.2179 277.844 37.2814 280.988L30.3751 285.363C25.0228 288.754 18.2384 288.873 12.7501 285.707L8.52651e-14 278.584L0.0626142 297.538L297.68 297.675C297.68 297.675 297.716 284.849 297.68 283.929L290.66 289.142C288.857 290.481 286.381 290.445 284.617 289.055L274.92 281.408C269.6 277.213 262.142 277.056 256.651 281.025L249.103 286.48C245.556 289.044 240.704 288.799 237.434 285.891L233.781 282.643C230.346 279.59 225.245 279.353 221.541 282.074L215.291 286.668C211.461 289.483 206.236 289.45 202.442 286.585L196.175 281.853C192.064 278.749 186.423 278.646 182.201 281.597L175.987 285.94C171.378 289.162 165.196 288.953 160.815 285.428L155.369 281.045C150.916 277.462 144.633 277.246 139.944 280.514L133.427 285.058C128.403 288.56 121.739 288.6 116.674 285.158L109.156 280.05C106.597 278.31 103.631 277.381 100.656 277.269Z" fill="#67246e" fill-rule="nonzero" opacity="0" stroke="none"/>
</g>
</g>
</svg>
