<?xml version="1.0" encoding="UTF-8" standalone="no"?>
<!DOCTYPE svg PUBLIC "-//W3C//DTD SVG 1.1//EN" "http://www.w3.org/Graphics/SVG/1.1/DTD/svg11.dtd">
<!-- Created with Vectornator (http://vectornator.io/) -->
<svg height="100%" stroke-miterlimit="10" style="fill-rule:nonzero;clip-rule:evenodd;stroke-linecap:round;stroke-linejoin:round;" version="1.1" viewBox="0.68065 -1.13175 297.69 298.812" width="100%" xml:space="preserve" xmlns="http://www.w3.org/2000/svg" xmlns:xlink="http://www.w3.org/1999/xlink">
<defs/>
<g id="Слой-5">
<path d="M-17.8732-5.68434e-14L279.807-5.68434e-14L279.807 297.675L-17.8732 297.675L-17.8732-5.68434e-14Z" fill="#000000" fill-rule="nonzero" opacity="0" stroke="#007aff" stroke-linecap="butt" stroke-linejoin="round" stroke-width="0.01"/>
<path d="M19.2443 0L19.2443 246.323L66.8637 246.323L19.2443 269.496L19.2443 297.675L120.917 291.877L113.917 211.438L74.1656 226.929L74.1656 197.848L113.827 195.612L113.651 156.126L56.1362 151.467L55.9361 123.889L111.392 113.921L110.072 89.2595L175.898 58.8252L107.997 50.5004L105.295 0L19.2443 0Z" fill="#c1c1c1" fill-rule="nonzero" opacity="1" stroke="none"/>
<path d="M203.087 0L201.851 23.8208L250.038 37.1128L199.911 61.2246L197.055 116.29L142.025 141.45L193.376 157.621L192.084 189.199L250.038 201.315L250.038 225.783L190.587 225.783L187.645 297.675L279.807 297.675L279.807 10.3087L203.087 0Z" fill="#c1c1c1" fill-rule="nonzero" opacity="1" stroke="none"/>
<path d="M210.916 130.043L236.66 116.146L267.232 138.38L210.916 130.043Z" fill="#000000" fill-rule="nonzero" opacity="1" stroke="none"/>
<path d="M36.1562 64.9286L60.7725 41.1064L97.5713 64.9286L60.7725 78.8249L36.1562 64.9286Z" fill="#000000" fill-rule="nonzero" opacity="1" stroke="none"/>
<path d="M142.025 141.452L161.902 180.134L140.423 233.293L142.025 141.452Z" fill="#749914" fill-rule="nonzero" opacity="1" stroke="none"/>
<path d="M175.898 58.8339L161.902 13.1282L171.361-1.13175L180.82 13.1282L175.898 58.8339Z" fill="#749914" fill-rule="nonzero" opacity="1" stroke="none"/>
<path d="M175.898 58.8339L230.615 58.8339L268.899 68.2754L241.24 85.6064L190.365 87.7198L175.898 58.8339Z" fill="#749914" fill-rule="nonzero" opacity="1" stroke="none"/>
</g>
</svg>
