<?xml version="1.0" encoding="UTF-8" standalone="no"?>
<!DOCTYPE svg PUBLIC "-//W3C//DTD SVG 1.1//EN" "http://www.w3.org/Graphics/SVG/1.1/DTD/svg11.dtd">
<!-- Created with Vectornator (http://vectornator.io/) -->
<svg height="100%" stroke-miterlimit="10" style="fill-rule:nonzero;clip-rule:evenodd;stroke-linecap:round;stroke-linejoin:round;" version="1.1" viewBox="221.442 190.656 34.647 38.959" width="100%" xml:space="preserve" xmlns="http://www.w3.org/2000/svg" xmlns:vectornator="http://vectornator.io" xmlns:xlink="http://www.w3.org/1999/xlink">
<defs/>
<g id="Layer">
<g opacity="1">
<path d="M256.089 203.797L251.258 203.797L249.28 204.689L246.853 201.322L240.717 201.322L238.58 202.032L240.717 205.211L244.027 206.039L245.167 208.332L248.849 210.459L252.781 208.677L253.48 206.171L256.089 203.797Z" fill="#749914" fill-rule="nonzero" opacity="1" stroke="none"/>
<path d="M247.511 191.751L221.442 190.656L223.929 192.725L223.929 198.078L226.616 201.322L244.675 201.322L246.267 198.078L244.675 192.725L247.511 191.751Z" fill="#a525b3" fill-rule="nonzero" opacity="1" stroke="none"/>
<path d="M243.326 207.37L238.58 202.032L236.101 204.343L233.775 207.996L236.902 207.996L236.616 209.795L240.989 207.589L241.198 208.4L243.326 207.37Z" fill="#c0a268" fill-rule="nonzero" opacity="1" stroke="none"/>
<path d="M237.541 207.996L236.881 207.996L236.768 208.831L237.541 208.804L237.541 207.996Z" fill="#b83c3d" fill-rule="nonzero" opacity="1" stroke="none"/>
<path d="M232.543 201.322L232.543 208.991L235.019 211.327L243.328 207.37L247.216 211.245L248.911 221.611L231.772 221.613L233.097 218.98L235.004 215.974L231.772 213.084L226.985 208.991L226.615 201.322L232.543 201.322Z" fill="#424242" fill-rule="nonzero" opacity="1" stroke="none"/>
<path d="M238.309 222.863L238.765 229.616L235.675 229.616L235.675 226.239L234.076 229.616L230.134 229.616L234.45 222.863L238.309 222.863Z" fill="#b83c3d" fill-rule="nonzero" opacity="1" stroke="none"/>
<path d="M248.332 224.262L247.616 222.794L245.861 222.794L245.516 224.262L244.6 222.794L243.39 222.794L242.491 224.262L244.6 225.502L244.6 227.305L242.992 228.094L244.047 229.616L245.412 229.616L245.861 228.094L246.978 229.616L248.332 229.616L248.747 228.094L246.978 227.305L246.978 225.502L248.332 224.262Z" fill="#dfd6ab" fill-rule="nonzero" opacity="1" stroke="none"/>
<path d="M240.495 205.654C240.495 204.689 239.5 203.906 238.274 203.906C237.047 203.906 236.053 204.689 236.053 205.654C236.053 206.62 237.047 207.403 238.274 207.403C239.5 207.403 240.495 206.62 240.495 205.654Z" fill="#ffffff" fill-rule="nonzero" opacity="1" stroke="none"/>
<path d="M238.765 205.626C238.765 205.312 238.453 205.057 238.068 205.057C237.683 205.057 237.37 205.312 237.37 205.626C237.37 205.94 237.683 206.194 238.068 206.194C238.453 206.194 238.765 205.94 238.765 205.626Z" fill="#424242" fill-rule="nonzero" opacity="1" stroke="none"/>
<path d="M238.373 194.322L235.197 192.135L233.251 194.322L228.024 194.322L231.249 195.989L228.936 199.677L233.775 197.737L235.197 199.677L237.063 197.737L239.419 199.677L238.58 196.975L243.326 196.975L239.419 195.403L242.098 192.676L238.373 194.322Z" fill="#fd19a9" fill-rule="nonzero" opacity="1" stroke="none"/>
</g>
</g>
</svg>
