<?xml version="1.0" encoding="UTF-8" standalone="no"?>
<!DOCTYPE svg PUBLIC "-//W3C//DTD SVG 1.1//EN" "http://www.w3.org/Graphics/SVG/1.1/DTD/svg11.dtd">
<!-- Created with Vectornator (http://vectornator.io/) -->
<svg height="100%" stroke-miterlimit="10" style="fill-rule:nonzero;clip-rule:evenodd;stroke-linecap:round;stroke-linejoin:round;" version="1.1" viewBox="93.9137 219.44 61.9697 41.1778" width="100%" xml:space="preserve" xmlns="http://www.w3.org/2000/svg" xmlns:vectornator="http://vectornator.io" xmlns:xlink="http://www.w3.org/1999/xlink">
<defs/>
<g id="Layer">
<g opacity="1">
<path d="M137.36 232.581L132.53 232.581L130.551 233.472L128.125 230.105L121.988 230.105L119.851 230.816L121.988 233.994L125.299 234.822L125.996 237.115L129.43 239.803L134.052 237.46L134.751 234.954L137.36 232.581Z" fill="#749914" fill-rule="nonzero" opacity="1" stroke="none"/>
<path d="M137.32 249.68L133.372 246.615L133.172 249.378L108.379 247.576L94.0987 246.538L93.9137 249.083L132.861 252.971L132.655 256.482L137.051 253.39L153.197 259.087L142.322 252.601L155.883 253.587L143.347 250.278L155.847 250.123L143.165 249.636L154.122 246.365L142.605 248.698L153.408 242.064L137.32 249.68Z" fill="#a89b3a" fill-rule="nonzero" opacity="1" stroke="none"/>
<path d="M128.782 220.535L102.713 219.44L105.201 221.508L105.201 226.861L107.887 230.105L125.947 230.105L127.539 226.861L125.947 221.508L128.782 220.535Z" fill="#a525b3" fill-rule="nonzero" opacity="1" stroke="none"/>
<path d="M124.597 236.154L119.851 230.816L117.373 233.126L115.047 236.78L118.174 236.78L117.888 238.578L122.261 236.372L122.469 237.184L124.597 236.154Z" fill="#c0a268" fill-rule="nonzero" opacity="1" stroke="none"/>
<path d="M118.812 236.78L118.152 236.78L118.04 237.614L118.812 237.588L118.812 236.78Z" fill="#b83c3d" fill-rule="nonzero" opacity="1" stroke="none"/>
<path d="M113.814 230.105L113.814 237.774L116.291 240.11L124.6 236.154L129.338 253.21L122.399 252.724L121.333 249.031L116.993 248.733L116.993 251.355L119.472 251.643L119.377 252.454L112.342 252.394L112.342 250.915L116.993 251.355L116.993 248.733L112.618 247.886L116.276 244.757L113.044 241.867L108.256 237.774L107.886 230.105L113.814 230.105Z" fill="#424242" fill-rule="nonzero" opacity="1" stroke="none"/>
<path d="M117.58 253.291L118.036 259.562L114.946 259.562L114.946 256.427L113.347 259.562L109.405 259.562L113.721 253.291L117.58 253.291Z" fill="#b83c3d" fill-rule="nonzero" opacity="1" stroke="none"/>
<path d="M128.942 255.265L128.226 253.796L126.471 253.796L126.126 255.265L125.21 253.796L124 253.796L123.101 255.265L125.21 256.504L125.21 258.307L123.602 259.096L124.657 260.618L126.022 260.618L126.471 259.096L127.588 260.618L128.942 260.618L129.357 259.096L127.588 258.307L127.588 256.504L128.942 255.265Z" fill="#dfd6ab" fill-rule="nonzero" opacity="1" stroke="none"/>
<path d="M121.766 234.438C121.766 233.472 120.772 232.69 119.545 232.69C118.319 232.69 117.324 233.472 117.324 234.438C117.324 235.403 118.319 236.186 119.545 236.186C120.772 236.186 121.766 235.403 121.766 234.438Z" fill="#ffffff" fill-rule="nonzero" opacity="1" stroke="none"/>
<path d="M120.037 234.409C120.037 234.095 119.725 233.841 119.339 233.841C118.954 233.841 118.642 234.095 118.642 234.409C118.642 234.723 118.954 234.978 119.339 234.978C119.725 234.978 120.037 234.723 120.037 234.409Z" fill="#424242" fill-rule="nonzero" opacity="1" stroke="none"/>
<path d="M119.644 223.105L116.468 220.919L114.523 223.105L109.296 223.105L112.52 224.773L110.207 228.461L115.047 226.52L116.468 228.461L118.334 226.52L120.691 228.461L119.851 225.758L124.597 225.758L120.691 224.186L123.37 221.459L119.644 223.105Z" fill="#fd19a9" fill-rule="nonzero" opacity="1" stroke="none"/>
</g>
</g>
</svg>
