<?xml version="1.0" encoding="UTF-8" standalone="no"?>
<!DOCTYPE svg PUBLIC "-//W3C//DTD SVG 1.1//EN" "http://www.w3.org/Graphics/SVG/1.1/DTD/svg11.dtd">
<!-- Created with Vectornator (http://vectornator.io/) -->
<svg height="100%" stroke-miterlimit="10" style="fill-rule:nonzero;clip-rule:evenodd;stroke-linecap:round;stroke-linejoin:round;" version="1.1" viewBox="93.9137 219.44 61.9697 41.1778" width="100%" xml:space="preserve" xmlns="http://www.w3.org/2000/svg" xmlns:vectornator="http://vectornator.io" xmlns:xlink="http://www.w3.org/1999/xlink">
<defs/>
<g id="Layer">
<g opacity="1">
<path d="M112.437 232.581L117.267 232.581L119.246 233.472L121.672 230.105L127.809 230.105L129.946 230.816L127.809 233.994L124.498 234.822L123.801 237.115L120.367 239.803L115.745 237.46L115.046 234.954L112.437 232.581Z" fill="#749914" fill-rule="nonzero" opacity="1" stroke="none"/>
<path d="M112.477 249.68L116.425 246.615L116.625 249.378L141.418 247.576L155.698 246.538L155.883 249.083L116.936 252.971L117.142 256.482L112.746 253.39L96.5998 259.087L107.475 252.601L93.9137 253.587L106.451 250.278L93.9502 250.123L106.632 249.636L95.6751 246.365L107.192 248.698L96.3889 242.064L112.477 249.68Z" fill="#a89b3a" fill-rule="nonzero" opacity="1" stroke="none"/>
<path d="M121.015 220.535L147.084 219.44L144.596 221.508L144.596 226.861L141.91 230.105L123.851 230.105L122.259 226.861L123.851 221.508L121.015 220.535Z" fill="#a525b3" fill-rule="nonzero" opacity="1" stroke="none"/>
<path d="M125.2 236.154L129.946 230.816L132.424 233.126L134.75 236.78L131.623 236.78L131.909 238.578L127.537 236.372L127.328 237.184L125.2 236.154Z" fill="#c0a268" fill-rule="nonzero" opacity="1" stroke="none"/>
<path d="M130.985 236.78L131.645 236.78L131.757 237.614L130.985 237.588L130.985 236.78Z" fill="#b83c3d" fill-rule="nonzero" opacity="1" stroke="none"/>
<path d="M135.983 230.105L135.983 237.774L133.507 240.11L125.197 236.154L120.459 253.21L127.399 252.724L128.465 249.031L132.804 248.733L132.804 251.355L130.325 251.643L130.42 252.454L137.455 252.394L137.455 250.915L132.804 251.355L132.804 248.733L137.179 247.886L133.521 244.757L136.753 241.867L141.541 237.774L141.911 230.105L135.983 230.105Z" fill="#424242" fill-rule="nonzero" opacity="1" stroke="none"/>
<path d="M132.217 253.291L131.761 259.562L134.851 259.562L134.851 256.427L136.45 259.562L140.392 259.562L136.076 253.291L132.217 253.291Z" fill="#b83c3d" fill-rule="nonzero" opacity="1" stroke="none"/>
<path d="M120.855 255.265L121.571 253.796L123.326 253.796L123.672 255.265L124.587 253.796L125.797 253.796L126.696 255.265L124.587 256.504L124.587 258.307L126.195 259.096L125.141 260.618L123.775 260.618L123.326 259.096L122.209 260.618L120.855 260.618L120.44 259.096L122.209 258.307L122.209 256.504L120.855 255.265Z" fill="#dfd6ab" fill-rule="nonzero" opacity="1" stroke="none"/>
<path d="M128.031 234.438C128.031 233.472 129.025 232.69 130.252 232.69C131.478 232.69 132.473 233.472 132.473 234.438C132.473 235.403 131.478 236.186 130.252 236.186C129.025 236.186 128.031 235.403 128.031 234.438Z" fill="#ffffff" fill-rule="nonzero" opacity="1" stroke="none"/>
<path d="M129.76 234.409C129.76 234.095 130.073 233.841 130.458 233.841C130.843 233.841 131.155 234.095 131.155 234.409C131.155 234.723 130.843 234.978 130.458 234.978C130.073 234.978 129.76 234.723 129.76 234.409Z" fill="#424242" fill-rule="nonzero" opacity="1" stroke="none"/>
<path d="M130.153 223.105L133.329 220.919L135.275 223.105L140.501 223.105L137.277 224.773L139.59 228.461L134.75 226.52L133.329 228.461L131.463 226.52L129.106 228.461L129.946 225.758L125.2 225.758L129.106 224.186L126.427 221.459L130.153 223.105Z" fill="#fd19a9" fill-rule="nonzero" opacity="1" stroke="none"/>
</g>
</g>
</svg>
