<?xml version="1.0" encoding="UTF-8" standalone="no"?>
<!DOCTYPE svg PUBLIC "-//W3C//DTD SVG 1.1//EN" "http://www.w3.org/Graphics/SVG/1.1/DTD/svg11.dtd">
<!-- Created with Vectornator (http://vectornator.io/) -->
<svg height="100%" stroke-miterlimit="10" style="fill-rule:nonzero;clip-rule:evenodd;stroke-linecap:round;stroke-linejoin:round;" version="1.1" viewBox="221.442 190.656 38.3921 38.959" width="100%" xml:space="preserve" xmlns="http://www.w3.org/2000/svg" xmlns:vectornator="http://vectornator.io" xmlns:xlink="http://www.w3.org/1999/xlink">
<defs/>
<g id="Layer">
<g opacity="1">
<path d="M257.1 203.797L251.991 203.797L249.898 204.689L247.331 201.322L240.84 201.322L238.58 202.032L240.84 205.211L244.342 206.039L245.548 208.332L249.443 210.459L253.601 208.677L254.341 206.171L257.1 203.797Z" fill="#749914" fill-rule="nonzero" opacity="1" stroke="none"/>
<path d="M247.511 191.751L221.442 190.656L223.929 192.725L223.929 198.078L226.616 201.322L244.675 201.322L246.267 198.078L244.675 192.725L247.511 191.751Z" fill="#a525b3" fill-rule="nonzero" opacity="1" stroke="none"/>
<path d="M243.326 207.37L238.58 202.032L236.102 204.343L233.775 207.996L236.903 207.996L236.616 209.794L240.989 207.589L241.198 208.4L243.326 207.37Z" fill="#c0a268" fill-rule="nonzero" opacity="1" stroke="none"/>
<path d="M237.541 207.996L236.881 207.996L236.768 208.831L237.541 208.804L237.541 207.996Z" fill="#b83c3d" fill-rule="nonzero" opacity="1" stroke="none"/>
<path d="M232.543 201.322L232.543 208.991L235.019 211.326L243.329 207.37L247.217 211.245L248.911 221.611L231.772 221.613L233.097 218.98L235.004 215.974L231.772 213.084L226.985 208.991L226.615 201.322L232.543 201.322Z" fill="#424242" fill-rule="nonzero" opacity="1" stroke="none"/>
<path d="M236 222.863L236.456 229.615L233.366 229.615L233.366 226.239L231.768 229.615L227.826 229.615L232.141 222.863L236 222.863Z" fill="#b83c3d" fill-rule="nonzero" opacity="1" stroke="none"/>
<path d="M250.165 224.262L249.449 222.794L247.694 222.794L247.349 224.262L246.433 222.794L245.223 222.794L244.324 224.262L246.433 225.502L246.433 227.305L244.826 228.094L245.88 229.615L247.245 229.615L247.694 228.094L248.811 229.615L250.165 229.615L250.58 228.094L248.811 227.305L248.811 225.502L250.165 224.262Z" fill="#dfd6ab" fill-rule="nonzero" opacity="1" stroke="none"/>
<path d="M240.495 205.654C240.495 204.689 239.501 203.906 238.274 203.906C237.047 203.906 236.053 204.689 236.053 205.654C236.053 206.62 237.047 207.402 238.274 207.402C239.501 207.402 240.495 206.62 240.495 205.654Z" fill="#ffffff" fill-rule="nonzero" opacity="1" stroke="none"/>
<path d="M238.765 205.626C238.765 205.312 238.453 205.057 238.068 205.057C237.683 205.057 237.37 205.312 237.37 205.626C237.37 205.94 237.683 206.194 238.068 206.194C238.453 206.194 238.765 205.94 238.765 205.626Z" fill="#424242" fill-rule="nonzero" opacity="1" stroke="none"/>
<path d="M238.373 194.322L235.197 192.135L233.251 194.322L228.024 194.322L231.249 195.989L228.936 199.677L233.775 197.736L235.197 199.677L237.063 197.736L239.419 199.677L238.58 196.975L243.326 196.975L239.419 195.402L242.099 192.676L238.373 194.322Z" fill="#fd19a9" fill-rule="nonzero" opacity="1" stroke="none"/>
</g>
</g>
</svg>
