<?xml version="1.0" encoding="UTF-8" standalone="no"?>
<!DOCTYPE svg PUBLIC "-//W3C//DTD SVG 1.1//EN" "http://www.w3.org/Graphics/SVG/1.1/DTD/svg11.dtd">
<!-- Created with Vectornator (http://vectornator.io/) -->
<svg height="100%" stroke-miterlimit="10" style="fill-rule:nonzero;clip-rule:evenodd;stroke-linecap:round;stroke-linejoin:round;" version="1.1" viewBox="217.697 190.656 38.3921 38.959" width="100%" xml:space="preserve" xmlns="http://www.w3.org/2000/svg" xmlns:vectornator="http://vectornator.io" xmlns:xlink="http://www.w3.org/1999/xlink">
<defs/>
<g id="Layer">
<g opacity="1">
<path d="M221.442 203.797L226.272 203.797L228.251 204.689L230.677 201.322L236.814 201.322L238.951 202.032L236.814 205.211L233.503 206.039L232.363 208.332L228.681 210.459L224.75 208.677L224.051 206.171L221.442 203.797Z" fill="#749914" fill-rule="nonzero" opacity="1" stroke="none"/>
<path d="M230.02 191.751L256.089 190.656L253.601 192.725L253.601 198.078L250.915 201.322L232.855 201.322L231.263 198.078L232.855 192.725L230.02 191.751Z" fill="#a525b3" fill-rule="nonzero" opacity="1" stroke="none"/>
<path d="M234.205 207.37L238.951 202.032L241.429 204.343L243.755 207.996L240.628 207.996L240.914 209.795L236.541 207.589L236.333 208.4L234.205 207.37Z" fill="#c0a268" fill-rule="nonzero" opacity="1" stroke="none"/>
<path d="M239.99 207.996L240.65 207.996L240.762 208.831L239.99 208.804L239.99 207.996Z" fill="#b83c3d" fill-rule="nonzero" opacity="1" stroke="none"/>
<path d="M244.988 201.322L244.988 208.991L242.511 211.327L234.202 207.37L230.314 211.245L228.62 221.611L245.758 221.613L244.434 218.98L242.526 215.974L245.758 213.084L250.546 208.991L250.916 201.322L244.988 201.322Z" fill="#424242" fill-rule="nonzero" opacity="1" stroke="none"/>
<path d="M239.221 222.863L238.765 229.616L241.855 229.616L241.855 226.239L243.454 229.616L247.396 229.616L243.081 222.863L239.221 222.863Z" fill="#b83c3d" fill-rule="nonzero" opacity="1" stroke="none"/>
<path d="M229.198 224.262L229.915 222.794L231.669 222.794L232.015 224.262L232.931 222.794L234.14 222.794L235.039 224.262L232.931 225.502L232.931 227.305L234.538 228.094L233.484 229.616L232.119 229.616L231.669 228.094L230.552 229.616L229.198 229.616L228.783 228.094L230.552 227.305L230.552 225.502L229.198 224.262Z" fill="#dfd6ab" fill-rule="nonzero" opacity="1" stroke="none"/>
<path d="M237.036 205.654C237.036 204.689 238.03 203.906 239.257 203.906C240.483 203.906 241.478 204.689 241.478 205.654C241.478 206.62 240.483 207.403 239.257 207.403C238.03 207.403 237.036 206.62 237.036 205.654Z" fill="#ffffff" fill-rule="nonzero" opacity="1" stroke="none"/>
<path d="M238.765 205.626C238.765 205.312 239.077 205.057 239.463 205.057C239.848 205.057 240.16 205.312 240.16 205.626C240.16 205.94 239.848 206.194 239.463 206.194C239.077 206.194 238.765 205.94 238.765 205.626Z" fill="#424242" fill-rule="nonzero" opacity="1" stroke="none"/>
<path d="M239.158 194.322L242.334 192.135L244.279 194.322L249.506 194.322L246.282 195.989L248.595 199.677L243.755 197.737L242.334 199.677L240.468 197.737L238.111 199.677L238.951 196.975L234.205 196.975L238.111 195.403L235.432 192.676L239.158 194.322Z" fill="#fd19a9" fill-rule="nonzero" opacity="1" stroke="none"/>
</g>
</g>
</svg>
