<?xml version="1.0" encoding="UTF-8" standalone="no"?>
<!DOCTYPE svg PUBLIC "-//W3C//DTD SVG 1.1//EN" "http://www.w3.org/Graphics/SVG/1.1/DTD/svg11.dtd">
<!-- Created with Vectornator (http://vectornator.io/) -->
<svg height="100%" stroke-miterlimit="10" style="fill-rule:nonzero;clip-rule:evenodd;stroke-linecap:round;stroke-linejoin:round;" version="1.1" viewBox="217.697 190.656 38.3921 38.959" width="100%" xml:space="preserve" xmlns="http://www.w3.org/2000/svg" xmlns:vectornator="http://vectornator.io" xmlns:xlink="http://www.w3.org/1999/xlink">
<defs/>
<g id="Layer">
<g opacity="1">
<path d="M220.431 203.797L225.54 203.797L227.633 204.689L230.2 201.322L236.691 201.322L238.951 202.032L236.691 205.211L233.189 206.039L231.983 208.332L228.088 210.459L223.93 208.677L223.191 206.171L220.431 203.797Z" fill="#749914" fill-rule="nonzero" opacity="1" stroke="none"/>
<path d="M230.02 191.751L256.089 190.656L253.602 192.725L253.602 198.078L250.915 201.322L232.856 201.322L231.264 198.078L232.856 192.725L230.02 191.751Z" fill="#a525b3" fill-rule="nonzero" opacity="1" stroke="none"/>
<path d="M234.205 207.37L238.951 202.032L241.43 204.343L243.756 207.996L240.629 207.996L240.915 209.794L236.542 207.589L236.333 208.4L234.205 207.37Z" fill="#c0a268" fill-rule="nonzero" opacity="1" stroke="none"/>
<path d="M239.99 207.996L240.65 207.996L240.763 208.831L239.99 208.804L239.99 207.996Z" fill="#b83c3d" fill-rule="nonzero" opacity="1" stroke="none"/>
<path d="M244.989 201.322L244.989 208.991L242.512 211.326L234.203 207.37L230.315 211.245L228.62 221.611L245.759 221.613L244.434 218.98L242.527 215.974L245.759 213.084L250.547 208.991L250.916 201.322L244.989 201.322Z" fill="#424242" fill-rule="nonzero" opacity="1" stroke="none"/>
<path d="M241.531 222.863L241.075 229.615L244.165 229.615L244.165 226.239L245.763 229.615L249.706 229.615L245.39 222.863L241.531 222.863Z" fill="#b83c3d" fill-rule="nonzero" opacity="1" stroke="none"/>
<path d="M227.366 224.262L228.082 222.794L229.837 222.794L230.183 224.262L231.099 222.794L232.308 222.794L233.207 224.262L231.099 225.502L231.099 227.305L232.706 228.094L231.652 229.615L230.286 229.615L229.837 228.094L228.72 229.615L227.366 229.615L226.951 228.094L228.72 227.305L228.72 225.502L227.366 224.262Z" fill="#dfd6ab" fill-rule="nonzero" opacity="1" stroke="none"/>
<path d="M237.036 205.654C237.036 204.689 238.031 203.906 239.257 203.906C240.484 203.906 241.478 204.689 241.478 205.654C241.478 206.62 240.484 207.402 239.257 207.402C238.031 207.402 237.036 206.62 237.036 205.654Z" fill="#ffffff" fill-rule="nonzero" opacity="1" stroke="none"/>
<path d="M238.766 205.626C238.766 205.312 239.078 205.057 239.463 205.057C239.849 205.057 240.161 205.312 240.161 205.626C240.161 205.94 239.849 206.194 239.463 206.194C239.078 206.194 238.766 205.94 238.766 205.626Z" fill="#424242" fill-rule="nonzero" opacity="1" stroke="none"/>
<path d="M239.158 194.322L242.334 192.135L244.28 194.322L249.507 194.322L246.282 195.989L248.596 199.677L243.756 197.736L242.334 199.677L240.468 197.736L238.112 199.677L238.951 196.975L234.205 196.975L238.112 195.402L235.433 192.676L239.158 194.322Z" fill="#fd19a9" fill-rule="nonzero" opacity="1" stroke="none"/>
</g>
</g>
</svg>
